<svg xmlns="http://www.w3.org/2000/svg" enable-background="new 0 0 500 421" viewBox="0 0 500 421" id="police-officer-with-police-car-in-town"><g opacity=".8"><path fill="#cce9ff" d="M500 221.415v92.554H367.077l-345.078-3.99s-12.834-1.12-19.592 3.99H0v-92.683h38.026v-53.253h48.221V110.04h13.607v1.287h6.436v-1.287h14.263v40.099h47.951v64.84h40.471v-44.565h49.805v-52.109h29.607V61.047h43.381v176.265h38.026V169.32l.296-1.287 19.4-84.78 28.101 84.78h.425V110.04h34.305v111.375H500z"></path><path fill="#cce9ff" d="M99.854 40.078h6.436v69.962h-6.436zM99.854 110.04h6.436v1.287h-6.436zM367.077 313.969H2.407c6.758-5.11 19.592-3.99 19.592-3.99l345.078 3.99zM370.089 168.033l-.295 1.287v-1.287z"></path></g><path fill="#cce9ff" d="M104.539 110.04h6.436v1.287h-6.436z" opacity=".8"></path><path fill="#f1b99e" d="M428.229 206.032s-.703 3.853.508 6.484c0 0 1.23 6.133-5.048 6.41-6.279.274-6.214-6.616-6.214-6.616s1.292-.754.288-6.239c-1.003-5.49 10.466-.039 10.466-.039z"></path><path fill="#f1b99e" d="M424.411 183.742s8.034 1.3 6.813 14.17c-1.226 12.874-8.317 11.822-8.791 11.808-.475-.015-7.118.234-7.635-15.485 0 .001-.226-11.622 9.613-10.493z"></path><path fill="#f1b99e" d="M431.346 194.276s.881-.96 1.204.018c.322.97-1.147 5.167-1.255 5.521 0 0-.164.375-.372.168-.209-.206.423-5.707.423-5.707zM414.993 194.113s-.863-.977-1.203-.01c-.341.968 1.079 5.382 1.148 5.546 0 0 .156.382.372.177.213-.204-.317-5.713-.317-5.713z"></path><path fill="#ffbe55" d="m431.342 196.254-1.149 1.574s.034-3.454-.153-3.994c-.182-.542.22-2.427.065-2.818-.153-.386-4.523 4.174-13.281 3.281l-.572.22c-.569.223-.292 4.044-.292 4.044l-.943-1.094s-1.07-6.529-.967-7.619c.14-1.452-.354-8.227 11.974-7.064a7.443 7.443 0 0 1 3.891 1.53c1.266.991 2.571 2.532 2.451 4.651-.156 2.801-1.024 7.289-1.024 7.289z"></path><path fill="#a77860" d="M418.773 208.014s3.315 3.872 8.578 0c0 0-1.476 2.935-4.57 3.006-3.094.068-4.008-3.006-4.008-3.006z"></path><path fill="#0b4870" d="M398.071 367.653s-2.306 1.643-3.579 2.797c-1.28 1.154-3.016 2.405-4.079 5.345-1.08 2.979-2.264 4.938.619 5.116 2.881.175 10.181-1.824 10.611-4.463.426-2.611 3.813-2.307 4.255-4.162.438-1.863-.147-4.148-.147-4.148l-7.68-.485z"></path><path fill="#eea886" d="m398.458 365.49-.387 2.163s1.188 2.197 7.68.485l-.337-2.128-6.956-.52z"></path><path fill="#0b4870" d="M438.191 367.653s2.304 1.643 3.583 2.797c1.276 1.154 3.013 2.405 4.077 5.345 1.076 2.979 2.264 4.938-.618 5.116-2.884.175-10.185-1.824-10.614-4.463-.429-2.611-3.811-2.307-4.253-4.162-.441-1.863.148-4.148.148-4.148l7.677-.485z"></path><path fill="#eea886" d="m437.803 365.49.388 2.163s-1.189 2.197-7.677.485l.334-2.128 6.955-.52z"></path><path fill="#ffbd95" d="M409.675 224.795c-.756 1.587-1.927 3.306-3.323 5.011-2.801 3.47-6.434 6.91-8.956 9.09a43.397 43.397 0 0 1-1.956 1.63c-.238.194-.445.357-.607.475-2.92 2.134-6.629 2.981-7.918 1.765a3.192 3.192 0 0 1-.563-.696v-.015a3.447 3.447 0 0 1-.505-1.898c0-.238.015-.46.075-.668l.044-.207a5.159 5.159 0 0 1 .919-1.957c.815-1.099 3.427-3.781 5.383-5.799 1.082-1.096 1.971-2 2.268-2.356.86-.965 2.759-3.842 6.125-7.502 1.126-1.217 2.269-2.122 3.38-2.699 2.239-1.187 4.299-1.099 5.575.147.489.475.772 1.038.889 1.662v.013c.222 1.142-.117 2.521-.83 4.004z"></path><path fill="#2a94f4" d="M410.505 220.778v.013c-.147 1.262-.459 2.655-.83 4.005-1.066 3.855-2.683 7.472-2.683 7.472s-.016 0-.03.015c-.519.415-9.09 7.015-9.46 6.732-.015-.015-.06-.059-.106-.118-.651-.786-3.809-5.427-5.129-7.37-.354-.532-.579-.86-.579-.86s9.579-11.46 11.968-12.929c.683-.415 1.482-.696 2.267-.889 1.958-.475 3.858-.386 3.858-.386.799.859.946 2.445.724 4.315z"></path><path fill="#ffbd95" d="M459.362 240.319v.015c.091 1.096-.237 2.165-1.141 2.95a.295.295 0 0 1-.088.059c-1.408 1.069-4.982.075-7.755-2.121-.177-.147-.415-.339-.713-.591a55.077 55.077 0 0 1-1.764-1.618c-2.506-2.343-6.154-6.049-8.868-9.756-1.201-1.632-2.224-3.261-2.875-4.774v-.015c-.654-1.512-.95-2.891-.682-4.018a3.053 3.053 0 0 1 .948-1.661c1.187-1.067 2.965-1.185 4.909-.297 1.29.607 2.652 1.661 3.942 3.188 3.234 3.781 5.028 6.732 5.844 7.739.295.372 1.14 1.291 2.179 2.431 1.884 2.092 4.388 4.879 5.16 6.008.089.118.162.251.222.37.014.015.014.029.03.044.355.639.593 1.35.652 2.047z"></path><path fill="#2a94f4" d="M435.964 246.279c.251-.727 1.321-10.111 2.448-14.575-.371-.978-1.498-4.033-2.253-7.221v-.015c-.654-1.512-.95-2.891-.682-4.018-.15-1.884.044-3.485.889-4.316 0 0 2.165.312 4.241 1.335-1.202-.725-3.678-1.364-5.961-2.076a45.582 45.582 0 0 1-3.499-1.276l-5.947 5.071-1.096-2.06-1.409.533h-.013v.015h-.033v-.015h-.012l-1.424-.548-1.097 2.075-5.931-5.071.015-.029c-.904.37-2.166.845-3.516 1.258-1.674.536-3.453.994-4.759 1.5 1.958-.475 3.858-.386 3.858-.386.8.86.947 2.446.724 4.315v.013c.223 1.143-.117 2.522-.83 4.005-1.066 3.855-2.683 7.472-2.683 7.472s-.016 0-.03.015c1.066 4.316 2.09 13.477 2.328 14.189.059.148.059.445.015.846-.446 3.928-1.452 20.044-.503 23.928l-1.076-.029 26.229.712 2.468.118c.639-4.284.029-19.021-.444-24.002-.09-.888-.106-1.511-.017-1.763zm-7.191-24.762a.381.381 0 0 1 .342-.34c.266-.015.622-.045.949-.104.4-.073.905-.283 1.141-.371.074-.045.162-.045.253 0 .22.088.725.298 1.126.371.326.059.695.089.948.104a.38.38 0 0 1 .342.34c.029.698.043 2.344-.401 3.292-.696 1.514-1.72 1.972-2.045 2.077a.515.515 0 0 1-.207 0c-.327-.104-1.349-.563-2.046-2.077-.446-.948-.431-2.594-.402-3.292z"></path><path fill="#2a94f4" d="M410.505 220.778v.013c.223 1.143-.117 2.522-.83 4.005-1.066 3.855-2.683 7.472-2.683 7.472s-.016 0-.03.015c-.208-.816-.4-1.645-.61-2.477-1.081-4.449-2.089-8.94-2.312-10.837-.074-.475-.089-.802-.03-.906.223-.444.934-.83 1.912-1.214 1.958-.475 3.858-.386 3.858-.386.8.859.947 2.445.725 4.315z"></path><path fill="#303030" d="m421.315 216.892 1.321.771-1.424-.548-1.097 2.075-5.931-5.071.015-.029c.83-.326 1.349-.548 1.349-.548l3.796 2.209 1.971 1.141zM431.146 214.119l-5.947 5.071-1.096-2.06-1.409.533 1.291-.754 2.016-1.158 3.796-2.195s.517.223 1.333.548l.016.015zM433.874 221.517c.029.698.043 2.344-.401 3.292-.696 1.514-1.72 1.972-2.045 2.077a.515.515 0 0 1-.207 0c-.327-.104-1.349-.563-2.046-2.077-.445-.948-.43-2.595-.401-3.292a.381.381 0 0 1 .342-.34c.266-.015.622-.045.949-.104.4-.073.905-.283 1.141-.371.074-.045.162-.045.253 0 .22.088.725.298 1.126.371.326.059.695.089.948.104a.381.381 0 0 1 .341.34z"></path><path fill="#0e538c" d="M441.333 218.494c-.06 1.394-1.128 6.049-2.299 10.764-.207.83-.398 1.645-.622 2.446-.371-.978-1.498-4.033-2.253-7.221v-.015c-.654-1.512-.95-2.891-.682-4.018-.15-1.884.044-3.485.889-4.316 0 0 2.165.312 4.241 1.335.341.207.592.431.696.651.03.062.045.196.03.374z"></path><path fill="#2a94f4" d="M453.906 231.022s-.238.312-.608.83c-1.378 1.871-4.685 6.362-5.397 7.163l-.12.118c-.385.283-9.237-7.101-9.237-7.101s-.043-.119-.133-.327c-.371-.978-1.498-4.033-2.253-7.221v-.015c-.328-1.364-.595-2.757-.682-4.018-.15-1.884.044-3.485.889-4.316 0 0 2.165.312 4.241 1.335.4.192.802.414 1.187.666 2.328 1.544 12.113 12.886 12.113 12.886z"></path><path fill="#0e538c" d="M422.681 217.663v.015h-.018l-.015-.015h-.012l-1.425-.548-2.639-1.009.771-.355 1.601-.772 1.188.369.531 2.271z"></path><path fill="#0e538c" d="m426.757 216.106-2.654 1.024-1.409.533h-.013l-.018.015h-.015v-.015l.015-.044.504-2.239 1.217-.401 1.617.772z"></path><path fill="#0b4870" d="m422.132 215.348-.817 1.544-.104.223-1.097 2.075-5.931-5.071.015-.029 2.356-2.802zM431.146 214.119l-5.947 5.071-1.096-2.06-.118-.222-.818-1.528 5.591-4.092 2.372 2.816z"></path><path fill="#ffbd95" d="M387.04 237.72c-1.579 1.428-2.107 3.41 1.781 7.903 3.889 4.495 14.293 13.78 14.293 13.78l2.557-2.308s-5.56-10.66-7.563-13.193c-1.998-2.532-6.934-9.918-11.068-6.182zM458.199 237.737c1.571 1.438 2.085 3.419-1.835 7.89-3.922 4.469-14.394 13.685-14.394 13.685l-2.54-2.328s5.638-10.621 7.656-13.14c2.018-2.517 7.004-9.873 11.113-6.107z"></path><path fill="#f2f2f2" d="M433.473 224.809c-.696 1.514-1.72 1.972-2.045 2.077a.515.515 0 0 1-.207 0c-.327-.104-1.349-.563-2.046-2.077-.445-.948-.43-2.595-.401-3.292a.381.381 0 0 1 .342-.34c.266-.015.622-.045.949-.104.4-.073.905-.283 1.141-.371.074-.045.162-.045.253 0 .22.088.725.298 1.126.371.326.059.695.089.948.104a.38.38 0 0 1 .342.34c.028.698.042 2.344-.402 3.292z"></path><path fill="#0b4870" d="M438.826 261.374s-15.553.047-30.843-.22c-.464-.009-.862.324-1.266.512 0 0-.025.175-.069.51-.108.768-.331 2.373-.62 4.558l-.156 1.149c-1.499 11.23-3.74 27.552-4.166 35.514-.563 10.45-1.149 11.939-1.149 13.9 0 5.297-3.192 49.892-3.192 49.892s5.806 1.692 10.724 0c0 0 4.492-44.235 5.496-47.508 1.008-3.272 8.135-33.098 9.396-33.241 1.263-.142 4.758 31.519 5.021 35.823.264 4.303-1.295 44.24.142 44.946 1.437.714 9.9.788 10.33-.632 0 0 .397-40.597.397-44.867 0-4.266 1.394-37.523 1.272-38.946 0 0 .396-10.444-1.317-21.39zM412.839 191.684s-4.036-.676-4.036-2.803c0-2.292 10.316-9.911 14.351-9.911v12.732l-10.315-.018z"></path><path fill="#0b4870" d="M433.468 191.684s4.036-.676 4.036-2.803c0-2.292-10.312-9.911-14.351-9.911v12.732l10.315-.018z"></path><path fill="#d3d3d3" d="M412.713 191.352h20.868v2.762h-20.868z"></path><path fill="#0b4870" d="M414.197 194.113s3.16 4.082 9.01 4.082c5.849 0 9.065-4.082 9.065-4.082h-18.075z"></path><path fill="#f2f2f2" d="M421.316 190.363c0 1.309 1.351 2.368 1.899 2.368.719 0 1.901-1.06 1.901-2.368 0-1.31-.455-2.37-1.901-2.37-1.463.001-1.899 1.061-1.899 2.37z"></path><path fill="#0e538c" d="M405.406 262.724h34.776v5.119h-34.776z"></path><path fill="#f1b99e" d="M409.118 265.043s-.707-.136-.989-.343c0 0-.483-.424-.844-.701a3.698 3.698 0 0 0-.285-.204c-.298-.172-.998-.459-1.594-1.07-.595-.612-3.84-4.576-3.84-4.576l2.375-1.02 1.311-.919s5.41.777 6.028 1.284c.061.048.119.1.172.151.48.48.639 1.039.864 1.319.086.104.828 1.184.725 1.564-.147.526-.464.827-.821.945 0 0-.333 1.013-.944 1.399 0 0-.275.947-1.169 1.211-.001-.001-.393.932-.989.96zM435.691 265.113s.711-.138.997-.346c0 0 .485-.427.848-.709.118-.087.22-.162.289-.202.302-.175 1.006-.465 1.607-1.08.6-.615 3.637-4.253 3.637-4.253l-2.159-1.388-1.324-.925s-5.452.784-6.073 1.294a1.877 1.877 0 0 0-.173.152c-.486.484-.646 1.046-.872 1.329-.085.106-.837 1.195-.73 1.578.148.528.467.833.828.95 0 0 .336 1.025.95 1.41 0 0 .276.953 1.179 1.221 0 0 .394.94.996.969z"></path><path fill="#d3d3d3" d="M418.775 262.462h8.998v6.095h-8.998z"></path><path fill="#ffbe55" d="M192.691 238.44h-6.186c-1.438 0-2.664.836-2.903 1.98l-1.795 8.596h15.583l-1.795-8.596c-.241-1.144-1.465-1.98-2.904-1.98z"></path><path fill="#f7f7f7" d="M181.808 250.779h15.583v3.524h-15.583z"></path><path fill="#d3d3d3" d="M180.437 248.133h18.325v3.526h-18.325z"></path><path fill="#0e538c" d="m48.418 319.822 36.36 2.529 4.334.299h237.933l20.037-2.565a9.559 9.559 0 0 0 8.268-8.274l2.229-17.553c.696-5.429-3.384-10.303-8.848-10.577l-90.272-4.518a16.466 16.466 0 0 1-9.218-3.403l-26.516-20.425a10.189 10.189 0 0 0-6.221-2.117h-78.007c-7.57 0-14.849 2.96-20.268 8.248l-11.509 11.227a10.275 10.275 0 0 1-5.119 2.723l-57.776 11.957a6.563 6.563 0 0 0-5.181 5.702l-1.465 13.289c-.756 6.867 4.355 12.981 11.239 13.458z"></path><path fill="#f7f7f7" d="M216.505 255.862c1.66 0 3.299.558 4.606 1.566l26.518 20.425a19.238 19.238 0 0 0 3.631 2.204l3.527 14.414-3.527 25.534h-70.5l2.646-26.487-2.646-37.656h35.745z"></path><path fill="#0b4870" d="M183.598 258.506h32.907c1.08 0 2.143.362 2.996 1.017l26.512 20.424c.196.15.402.283.602.424h-61.483l-1.534-21.865zM280.839 322.65h44.115c-.074-11.818-8.159-21.573-18.686-23.299a21.043 21.043 0 0 0-3.36-.264c-12.151 0-21.989 10.522-22.069 23.563zM86.026 322.351l4.107.299h40.815c-.077-11.818-8.314-21.573-19.034-23.299a21.811 21.811 0 0 0-3.423-.264c-12.282 0-22.24 10.362-22.465 23.264z"></path><path fill="#f7f7f7" d="M130.84 259.891c1.761-2.463 4.578-4.024 7.605-4.029H178.115l2.645 37.656-2.645 26.487h-41.65a27.933 27.933 0 0 0-19.769-24.102l-.165-12.682a9.983 9.983 0 0 1 1.862-5.925l12.447-17.405z"></path><path fill="#0b4870" d="M132.992 261.43c1.305-1.827 3.345-2.921 5.506-2.924h37.155l1.541 21.931-56.137-2.121 11.935-16.886zM186.929 284.191h11.75v3.744h-11.75z"></path><path fill="#0b4870" d="M126.655 277.434h3.744v11.751h-3.744z" transform="rotate(-86.813 128.512 283.293)"></path><path fill="#d3d3d3" d="m35.301 314.013 15.627.7v-.068a6.622 6.622 0 0 0-6.625-6.62H37.11l.612-6.548c-4.133 1.427-5.008.534-5.683 9.301-.135 1.761 1.497 3.184 3.262 3.235z"></path><path fill="#ffbe55" d="m37.341 301.037.627.008c.607.006 1.109-.65 1.158-1.507l.284-5.138c.051-.95-.478-1.765-1.148-1.765h-.445c-.588 0-1.081.62-1.158 1.446l-.466 5.079c-.091.988.444 1.866 1.148 1.877zM358.272 294.789l2.16.626a2.862 2.862 0 0 1 2.033 3.136l-1.345 9.77a2.852 2.852 0 0 1-2.773 2.466l-1.489.031 1.414-16.029z"></path><path fill="#d3d3d3" d="m357.821 294.219 1.511.527-2.033 16.541-1.448-.194z"></path><path fill="#cce9ff" d="M122.507 323.325c0 7.74-6.273 14.013-14.012 14.013-7.74 0-14.013-6.273-14.013-14.013 0-7.724 6.273-13.998 14.013-13.998 7.739.001 14.012 6.275 14.012 13.998z"></path><path fill="#f7f7f7" d="M122.507 323.325c0 7.74-6.273 14.013-14.012 14.013-7.74 0-14.013-6.273-14.013-14.013 0-7.724 6.273-13.998 14.013-13.998 7.739.001 14.012 6.275 14.012 13.998z"></path><path fill="#d3d3d3" d="M96.936 323.33c0 6.382 5.174 11.554 11.554 11.554 6.386 0 11.555-5.172 11.555-11.554 0-6.38-5.169-11.555-11.555-11.555-6.38 0-11.554 5.176-11.554 11.555z"></path><path fill="#f7f7f7" d="m107.87 325.203 1.242-3.834-11.989-3.154-.811 2.497z"></path><path fill="#f7f7f7" d="m110.123 324.472-3.264-2.37-6.707 10.427 2.123 1.546z"></path><path fill="#f7f7f7" d="m110.123 322.102-3.264 2.37 7.848 9.603 2.121-1.546z"></path><path fill="#f7f7f7" d="m107.87 321.369 1.242 3.834 11.558-4.491-.811-2.497z"></path><path fill="#f7f7f7" d="M106.475 323.286h4.032l-.702-12.38h-2.624z"></path><path fill="#f2f2f2" d="M104.262 323.33a4.23 4.23 0 0 0 4.228 4.229 4.229 4.229 0 1 0-4.228-4.229z"></path><path fill="#0e538c" d="M108.495 303.917c-10.722 0-19.425 8.688-19.425 19.408 0 10.737 8.703 19.423 19.425 19.423 10.719 0 19.408-8.687 19.408-19.423 0-10.72-8.689-19.408-19.408-19.408zm0 33.421c-7.74 0-14.013-6.273-14.013-14.013 0-7.724 6.273-13.998 14.013-13.998 7.739 0 14.012 6.274 14.012 13.998 0 7.74-6.273 14.013-14.012 14.013z"></path><path fill="#cce9ff" d="M316.918 323.325c0 7.74-6.273 14.013-14.012 14.013-7.74 0-14.013-6.273-14.013-14.013 0-7.724 6.273-13.998 14.013-13.998 7.739.001 14.012 6.275 14.012 13.998z"></path><path fill="#f7f7f7" d="M316.918 323.325c0 7.74-6.273 14.013-14.012 14.013-7.74 0-14.013-6.273-14.013-14.013 0-7.724 6.273-13.998 14.013-13.998 7.739.001 14.012 6.275 14.012 13.998z"></path><path fill="#d3d3d3" d="M291.346 323.33c0 6.382 5.176 11.554 11.555 11.554 6.385 0 11.554-5.172 11.554-11.554 0-6.38-5.169-11.555-11.554-11.555-6.38 0-11.555 5.176-11.555 11.555z"></path><path fill="#f7f7f7" d="m302.281 325.203 1.242-3.834-11.989-3.154-.812 2.497z"></path><path fill="#f7f7f7" d="m304.534 324.472-3.265-2.37-6.706 10.427 2.123 1.546z"></path><path fill="#f7f7f7" d="m304.534 322.102-3.265 2.37 7.85 9.603 2.119-1.546z"></path><path fill="#f7f7f7" d="m302.281 321.369 1.242 3.834 11.558-4.491-.811-2.497z"></path><path fill="#f7f7f7" d="M300.885 323.286h4.034l-.704-12.38h-2.624z"></path><path fill="#f2f2f2" d="M298.672 323.33a4.23 4.23 0 0 0 8.46 0 4.229 4.229 0 0 0-4.231-4.229 4.229 4.229 0 0 0-4.229 4.229z"></path><path fill="#0e538c" d="M302.906 303.917c-10.722 0-19.427 8.688-19.427 19.408 0 10.737 8.705 19.423 19.427 19.423 10.718 0 19.408-8.687 19.408-19.423 0-10.72-8.69-19.408-19.408-19.408zm0 33.421c-7.74 0-14.013-6.273-14.013-14.013 0-7.724 6.273-13.998 14.013-13.998 7.739 0 14.012 6.274 14.012 13.998 0 7.74-6.273 14.013-14.012 14.013z"></path></svg>